<svg width="100%" height="100%" viewBox="0 0 2490 2481" version="1.1" xmlns="http://www.w3.org/2000/svg" xmlns:xlink="http://www.w3.org/1999/xlink" xml:space="preserve" style="fill-rule:evenodd;clip-rule:evenodd;stroke-linejoin:round;stroke-miterlimit:2;">
    <g transform="matrix(1,0,0,1,-2800.275,-2790.35625)" opacity="0.3">
        <g id="Page-6" transform="matrix(4.166667,0,0,4.166667,2800.275,2790.35625)">
            <rect x="0" y="0" width="597.392" height="595.276" style="fill:none;"/>
            <g id="Layer-1">
                <g>
                    <g transform="matrix(1,0,0,1,403.321,166.1836)">
                        <path d="M0,260.56C-0.599,260.151 -9.711,264.229 -11.328,264.738C-21.125,267.827 -31.992,266.95 -42.147,267.161C-76.82,267.88 -111.43,266.866 -146.059,266.196C-158.346,265.958 -170.818,266.297 -183.054,264.28C-190.772,263.008 -198.06,260.524 -205.019,257.032C-204.612,277.302 -216.015,297.734 -235.112,305.478C-234.917,305.962 -233.647,305.954 -233.202,305.983C-222.922,306.67 -212.645,306.319 -202.392,305.658C-158.126,302.805 -113.939,305.378 -69.763,305.321C-46.561,305.291 -22.838,304.963 0.544,304.939C8.295,304.931 16.307,304.695 24.023,304.934C24.62,304.952 25.046,305.054 25.573,305.305C25.772,304.466 25.427,304.737 25.119,304.525C12.665,295.961 1.817,283.945 0.428,268.004C0.212,265.527 0.762,262.939 0,260.56M142.679,243.268C144.973,240.88 145.806,236.896 143.934,234.034C140.256,228.41 127.585,232.665 122.501,234.55C120.099,245.513 136.048,250.17 142.679,243.268M-333.993,236.254C-335.395,233.334 -336.905,232.214 -340.141,231.371C-344.922,230.125 -356.967,230.396 -361.707,231.746C-367.791,233.479 -370.869,237.256 -368.498,243.627C-363.889,256.008 -327.752,254.143 -333.414,236.902C-333.595,236.353 -333.943,236.359 -333.993,236.254M-209.173,262.859C-209.173,239.354 -228.233,220.3 -251.745,220.3C-275.257,220.3 -294.317,239.354 -294.317,262.859C-294.317,286.363 -275.257,305.417 -251.745,305.417C-228.233,305.417 -209.173,286.363 -209.173,262.859M89.269,262.722C89.269,239.214 70.206,220.157 46.691,220.157C23.176,220.157 4.114,239.214 4.114,262.722C4.114,286.229 23.176,305.286 46.691,305.286C70.206,305.286 89.269,286.229 89.269,262.722M-327.146,181.121C-335.667,182.696 -342.162,178.334 -348.846,185.834C-354.959,192.692 -357.526,204.071 -358.634,212.952L-340.971,211.567L-327.146,181.121ZM132.531,174.243C132.265,173.974 131.017,173.059 130.724,173.054C129.937,173.116 129.731,173.985 129.439,174.585C127.248,179.097 126.3,190.374 128.497,194.895C129.836,197.65 133.38,198.943 135.019,195.905C135.668,194.703 136.716,189.427 136.851,187.918C137.216,183.827 135.458,177.206 132.531,174.243M121.452,165.379C119.798,153.955 108.636,147.317 98.798,143.428C80.453,136.177 60.213,133.751 40.953,130.17C34.332,128.939 27.287,126.926 20.751,125.953C19.994,125.84 17.247,125.311 16.877,125.901C16.584,130.989 15.584,135.837 16.644,140.902C17.487,144.93 22.388,156.359 25.226,159.158C26.678,160.589 30.206,160.242 32.343,160.539C62.129,164.672 90.363,164.004 120.24,165.02C120.71,165.036 121.042,165.219 121.452,165.379M-209.92,58.332C-210.333,57.493 -212.044,57.459 -212.937,57.33C-222.106,56.006 -231.427,55.474 -240.505,53.442C-268.902,65.104 -290.147,90.714 -302.468,118.159C-303.854,121.246 -305.56,125.276 -306.514,128.487C-306.893,129.763 -307.885,132.864 -307.375,133.898C-306.113,136.452 -293.567,137.952 -291.219,135.177C-279.087,109.231 -265.298,82.949 -239.32,68.648C-230.137,63.593 -220.073,60.773 -209.92,58.332M126.289,171.036C123.194,169.462 119.425,168.712 115.987,168.222C91.466,164.729 66.455,168.176 41.85,165.727C37.051,165.249 26.285,164.055 23.252,160.182C20.413,156.558 13.717,139.572 13.68,135.119C13.646,131.046 15.527,126.148 15.096,121.809C14.748,118.31 9.498,114.254 7.201,111.513C-6.843,94.748 -16.519,74.816 -34.989,62.039C-39.126,59.176 -45.676,55.143 -50.432,53.689C-54.789,52.358 -61.909,53.808 -66.57,54.545C-67.143,54.635 -68.679,54.673 -68.9,55.184C-61.712,56.575 -54.237,59.132 -47.802,62.604C-45.757,63.708 -43.258,65.173 -41.608,66.728C-47.468,63.88 -53.285,61.231 -59.535,59.292C-64.825,57.651 -72.375,55.414 -77.84,55.524C-91.688,55.805 -106.811,57.978 -120.863,58.689C-121.572,58.724 -122.229,59.07 -122.95,59.052L-148.455,59.788C-149.445,60.088 -148.362,63.398 -148.319,64.443C-148.234,66.493 -148.264,68.582 -148.687,70.58C-149.187,71.109 -149.32,70.539 -149.38,70.057C-149.71,67.424 -149.667,64.666 -150.129,62.055C-150.243,61.412 -150.367,59.998 -151.003,59.78C-162.904,59.703 -174.81,59.858 -186.664,59.4C-196.185,59.032 -202.081,57.899 -211.74,59.839C-239.56,65.425 -262.169,83.655 -275.537,108.352C-279.899,116.411 -283.095,125.25 -287.301,133.321C-287.979,134.622 -288.642,136.185 -289.687,137.233C-294.3,141.859 -305.053,136.619 -310.684,136.861C-315.657,142.814 -322.477,147.941 -326.728,154.425C-328.523,157.163 -331.478,161.218 -326.227,161.84C-320.43,162.527 -314.259,161.329 -308.436,161.167C-260.399,159.83 -212.351,160.959 -164.277,160.809C-163.732,160.735 -163.239,160.541 -162.867,160.12C-160.807,157.786 -160.706,146.144 -159.507,142.49C-159.322,141.927 -159.108,141.423 -158.485,141.242C-158.465,143.622 -158.616,146.043 -158.833,148.412C-161.098,173.153 -163.731,198.016 -159.823,222.865C-155.404,250.962 -141.938,247.939 -118.069,248.638C-100.813,249.144 -83.569,249.582 -66.292,249.32C-54.468,249.141 -41.566,249.587 -29.89,248.281C-11.719,246.248 -8.397,238.48 -5.326,221.764C-3.3,210.731 -2.823,199.457 -0.907,188.402C0.595,179.738 2.941,171.216 4.58,162.583C-16.556,166.381 -38.239,164.978 -59.584,164.283C-70.921,163.913 -82.508,162.905 -93.906,162.917C-108.99,162.932 -126.631,165.168 -141.462,162.883C-142.843,162.67 -144.298,162.383 -145.532,161.708C-145.118,161.054 -144.526,161.283 -143.962,161.179C-131.815,158.944 -116.794,159.913 -104.433,160.146C-70.627,160.784 -36.116,162.91 -2.606,161.167C-0.699,161.068 6.083,161.247 7.378,160.303C7.725,160.05 8.333,158.012 8.401,157.479C10.427,141.704 -10.381,113.877 -17.873,99.849C-18.864,97.995 -20.468,95.206 -21.152,93.33C-21.272,93 -21.612,92.191 -20.967,92.271C-9.835,108.821 2.153,125.166 8.787,144.209C10.035,147.791 13.563,158.252 12.099,161.525C11.592,162.659 9.503,162.793 8.448,163.472C4.246,166.173 2.119,179.583 1.477,184.489C-1.388,206.409 3.159,248.667 -27.422,250.748C-59.335,252.92 -91.712,252.382 -123.65,251.069C-140.468,250.378 -153.089,252.433 -160.149,234.036C-163.253,225.947 -162.305,219.733 -162.316,211.394C-162.337,195.354 -162.203,179.267 -162.483,163.258C-163.105,162.365 -166.008,163.263 -167.04,163.295C-212.587,164.696 -258.724,164.551 -304.208,164.315C-311.712,164.276 -329.449,163.652 -335.52,166.974C-339.903,169.373 -342.984,174.337 -342.89,179.373L-323.868,178.371C-323.575,178.44 -323.43,178.621 -323.337,178.897C-322.22,182.238 -331.013,194.589 -332.691,198.486C-334.524,202.742 -336.331,211.034 -339.204,214.363C-341.561,217.093 -344.614,215.504 -347.598,215.388C-349.915,215.298 -355.103,215.196 -356.87,216.643C-359.457,218.763 -356.823,224.421 -356.884,227.295C-355.487,227.065 -354.195,227.582 -352.876,227.66C-347.629,227.972 -340.553,226.513 -336.007,228.987C-326.786,234.007 -327.641,244.917 -336.355,250.094C-338.056,251.105 -347.149,254.575 -347.435,255.111C-347.737,255.677 -347.017,255.684 -346.733,255.79C-336.461,259.638 -311.354,258.498 -302.042,252.214C-297.362,249.057 -295.58,244.087 -292.646,239.569C-273.081,209.447 -231.341,209.852 -211.098,239.144C-201.944,252.39 -202.782,257.759 -184.797,261.126C-169.458,263.997 -153.227,263.301 -137.675,263.691C-100.153,264.633 -62.477,265.84 -25.001,264.012C-22.129,263.872 -19.202,264.253 -16.335,263.93C-1.424,262.247 1.447,245.043 8.984,235.021C27.13,210.89 67.124,211.51 85.003,235.577C89.273,241.323 91.083,251.009 98.522,253.546C104.42,255.556 120.738,255.367 125.639,251.243C129.8,247.741 125.241,246.807 123.372,244.795C121.854,243.16 119.536,238.719 119.378,236.517C118.924,230.173 128.804,229.224 133.194,228.013C133.598,223.342 138.122,219.084 137.398,214.337C137.089,212.31 132.535,205.283 131.048,203.538C130.728,203.162 129.832,201.986 129.333,202.11C125.048,207.402 127.06,214.462 125.199,220.374C125.084,220.741 125.108,221.431 124.608,221.348C126.161,211.57 126.845,200.653 125.202,190.843C124.392,186.004 121.446,180.13 123.649,175.443C124.269,174.125 126.939,172.161 126.289,171.036M-4.166,33.503C-5.229,33.613 -5.54,34.557 -6.785,34.563C-8.33,34.57 -10.411,32.953 -11.951,33.209C-13.069,33.394 -14.413,34.826 -15.478,35.309C-19.311,37.049 -20.483,34.673 -23.591,34.732C-25.36,34.766 -26.564,36.175 -28.137,36.315C-29.647,36.449 -31.28,35.506 -32.264,35.661C-32.985,35.775 -35.931,38.29 -37.416,38.914C-40.641,40.271 -44.958,40.836 -48.428,40.492C-50.363,40.301 -52.452,39.321 -54.421,39.14C-63.07,38.344 -62.338,47.906 -69.665,50.051C-78.311,52.583 -81.639,45.767 -87.688,41.96C-90.923,39.925 -90.076,41.469 -92.524,41.571C-93.713,41.62 -94.932,40.916 -96.365,41.202C-97.41,41.411 -98.672,42.85 -100.6,42.912C-102.332,42.967 -104.694,41.559 -106.12,41.653C-107.697,41.757 -109.153,43.884 -111.072,44.015C-112.604,44.12 -115.263,42.83 -116.276,43.028C-116.951,43.159 -119.178,46.138 -120.217,46.74C-122.013,47.779 -125.042,47.865 -127.002,47.33C-128.899,46.812 -129.684,44.647 -132.346,45.462C-133.562,45.834 -134.438,50.022 -136.005,51.344C-138.601,53.535 -145.397,54.121 -148.113,51.994C-149.518,50.893 -149.446,48.225 -151.28,47.466C-153.593,46.509 -155.703,48.439 -157.922,48.183C-160.213,47.919 -161.674,44.218 -164.204,46.142C-164.85,46.633 -164.873,47.211 -165.821,47.675C-170.488,49.964 -175.447,46.961 -179.929,45.796C-183.471,48.235 -186.897,51.373 -190.933,53.005C-197.071,55.487 -204.677,54.626 -209.89,50.436C-212.667,48.203 -216.596,41.536 -219.934,41.211C-221.787,41.031 -224.102,42.74 -226.49,42.573C-229.282,42.377 -231.879,39.69 -233.533,39.77C-234.906,39.837 -236.575,41.208 -237.859,41.357C-240.817,41.702 -244.597,40.378 -247.863,40.868C-249.475,41.109 -251.057,42.567 -252.674,43.054C-256.915,44.331 -262.423,43.112 -265.739,40.153C-267.949,38.18 -267.935,35.89 -271.685,35.919C-273.91,35.936 -275.805,37.78 -276.07,39.958C-269.566,43.497 -262.628,46.117 -255.484,48.091C-228.791,55.469 -199.191,56.573 -171.607,57.289C-133.04,58.292 -93.856,56.718 -55.475,51.295C-40.601,49.193 -22.518,46.184 -9.53,38.456C-7.412,37.196 -5.362,35.718 -4.166,33.503M-3.817,30.696C-3.969,30.054 -4.688,29.98 -5.208,29.818C-9.57,28.467 -18.48,26.882 -22.869,27.567C-24.275,27.787 -29.148,30.595 -29.851,31.782C-30.442,32.781 -30.741,33.429 -29.548,33.891C-28.006,34.488 -26.593,32.809 -25.259,32.53C-21.971,31.844 -19.861,34.533 -16.45,32.938C-15.465,32.476 -14.892,31.573 -14.089,31.103C-10.956,29.267 -7.078,32.919 -3.817,30.696M8.781,-6.032C13.495,-6.757 24.566,-9.682 23.445,-1.337C23.068,1.474 19.781,4.126 19.629,5.37C19.411,7.158 21.326,8.174 21.653,9.609C22.209,12.054 21.453,15.243 18.834,16.089C17.035,16.671 13.025,15.695 13.74,18.904C13.87,19.492 14.447,19.928 14.625,20.486C17.206,28.577 6.613,31.864 0.383,31.926C-9.593,47.875 -30.516,48.008 -46.855,52.562C-38.448,56.406 -30.785,61.235 -23.932,67.441C-9.394,80.607 -0.919,98.894 11.59,113.772C19.29,122.93 24.533,124.369 36.009,126.79C59.663,131.781 104.598,133.561 120.763,152.953C124.018,156.856 123.546,159.287 125.297,163.462C127.643,169.057 133.059,168.636 137.206,172.196C144.211,178.21 143.167,188.768 139.251,196.288C138.327,198.063 135.084,201.667 135.123,203.291C135.232,207.81 142.497,209.871 143.349,214.693C144.045,218.635 140.812,218.212 138.962,220.485C134.282,226.236 144.148,227.47 146.979,229.94C151.684,234.046 150.62,242.687 146.312,246.724C142.524,250.274 123.838,256.786 118.309,257.909C109.662,259.665 101.845,258.145 93.463,255.982C93.303,258.665 93.964,261.164 93.826,263.866C93.19,276.253 81.765,293.786 72.081,301.247C69.078,303.56 65.558,304.954 62.668,307.4C63.779,307.431 65.193,307.501 66.254,307.779C68.592,308.392 67.919,308.035 70.175,308.09C77.354,308.265 86.204,310.313 93.64,310.898C96.827,311.149 100.233,311.072 103.43,311.255C117.465,312.059 131.717,312.121 145.772,313.353C150.639,313.78 158.923,314.359 163.275,316.145C163.708,316.322 164.764,316.69 164.843,317.195L99.599,313.336C96.994,313.643 94.404,313.116 91.901,312.986C24.085,309.474 -43.546,306.949 -111.431,307.739C-155.401,308.251 -199.389,310.125 -243.322,310.916C-275.394,311.494 -307.567,310.885 -339.579,312.287C-347.865,312.649 -356.152,313.689 -364.413,314.047C-366.097,314.119 -367.799,314.006 -369.481,314.047L-366.959,312.9C-345.572,308.335 -322.295,307.794 -300.388,307.389C-290.758,307.211 -279.93,308.474 -270.618,307.766C-269.37,307.671 -268.168,307.309 -266.957,307.049C-266.931,306.668 -266.897,306.337 -267.118,305.991C-267.414,305.529 -274.422,302.592 -275.662,301.939C-281.917,298.648 -288.202,293.1 -291.946,287.085C-297.905,277.51 -298.955,266.369 -298.451,255.283C-302.189,256.374 -305.954,258.571 -309.645,259.656C-324.117,263.911 -352.288,261.543 -365.605,254.029C-372.34,250.228 -376.299,243.182 -372.932,235.567C-370.273,229.551 -364.24,230.137 -359.661,226.367C-359.876,224.718 -360.683,223.013 -360.988,221.427C-361.726,217.591 -362.418,211.762 -362.089,207.927C-361.243,198.047 -350.073,177.844 -343.879,169.811C-341.181,166.311 -339.658,166.196 -336.621,163.775C-333.292,161.121 -332.109,155.885 -330.002,152.201C-326.046,145.284 -319.219,140.254 -314.605,133.662C-309.83,126.839 -306.768,118.884 -302.709,111.622C-289.281,87.599 -272.972,66.9 -247.836,54.537C-246.842,54.049 -244.115,53.642 -245.065,52.368C-256.196,49.628 -267.189,46.203 -277.722,41.604C-281.324,42.526 -283.296,43.396 -286.873,41.674C-288.801,40.746 -288.252,39.098 -289.509,37.68C-291.321,35.636 -293.979,36.454 -293.558,32.617C-293.217,29.501 -288.835,29.847 -289.006,27.054C-289.169,24.403 -292.365,25.374 -293.997,25.026C-297.142,24.355 -293.717,19.368 -294.252,18.809C-298.13,20.094 -302.076,22.598 -306.344,21.277C-310.073,20.123 -308.961,18.055 -309.816,15.304C-310.382,13.484 -311.93,12.543 -311.767,10.241C-311.579,7.574 -308.144,6.227 -308.021,3.537C-307.947,1.917 -308.595,1.558 -307.68,-0.395C-306.554,-2.795 -303.938,-3.217 -301.506,-2.798C-296.41,-1.921 -295.004,4.726 -289.353,3.763C-290.409,0.389 -288.204,-2.101 -284.802,-2.184C-288.408,-9.453 -288.331,-15.953 -283.042,-22.286C-271.032,-36.666 -245.178,-42.44 -227.482,-46.151C-177.479,-56.635 -121.728,-56.318 -71.484,-49.448C-54,-47.058 -36.159,-44.794 -19.475,-38.825C-4.231,-33.371 12.518,-25.559 8.781,-6.032" style="fill:rgb(255,252,248);fill-rule:nonzero;"/>
                    </g>
                </g>
            </g>
        </g>
    </g>
</svg>
